<svg id="Layer_1" data-name="Layer 1" xmlns="http://www.w3.org/2000/svg" viewBox="0 0 512 512"><defs><style>.cls-1{fill:#666;}</style></defs><path class="cls-1" d="M193.78,136.9c-56.56,58.51-44.22,155.63,20.57,198.65a5.46,5.46,0,0,0,6.81-.66c13.64-13.32,25.18-26.23,35.28-42.65a5.13,5.13,0,0,0-2-7.18c-9.88-5.35-19.71-15.39-25.25-26h0a63.33,63.33,0,0,1-5.37-43.29h0c4-19.57,25.05-37.78,41.09-54.61l-.1,0,60.13-61.36a61.66,61.66,0,0,1,87.58-.45,62.43,62.43,0,0,1,.9,88L377,224.79a6.41,6.41,0,0,0-1.45,6.55c8.39,24.32,10.45,58.6,4.83,84.51a.74.74,0,0,0,1.26.67l77.51-79.11c49.51-50.54,49.09-132.82-.94-182.84a130,130,0,0,0-184.69.94l-79.42,81.05c-.1.12-.2.23-.31.34Z"/><path class="cls-1" d="M338.68,346.69h0l.14-.06c15.82-28.93,18.93-62.1,11.52-94.44l0,0h0c-7-28.8-26.35-57.4-52.59-75a7.17,7.17,0,0,0-8,.37c-13.29,10.74-26.29,24.52-34.87,42.1a5.84,5.84,0,0,0,2.31,7.62,65.17,65.17,0,0,1,25,25.48h0c4.69,7.94,9.32,23,6.32,39.19h0c-2.79,21.46-24.46,41.14-41.69,58.88h0c-13.12,13.41-46.45,47.39-59.8,61a62.24,62.24,0,1,1-88.92-87.12l36.52-37.56a6.4,6.4,0,0,0,1.49-6.44c-8.11-24.88-10.34-58.4-5.22-84.27a.74.74,0,0,0-1.26-.66L53.24,273.76c-50,51.06-49.6,134.18.94,184.72,51.06,50,133.75,49.17,183.77-1.88,17.38-19.44,91.76-88.31,100.73-109.91Z"/></svg>