<?xml version="1.0" encoding="utf-8"?>
<!-- Generator: Adobe Illustrator 22.0.1, SVG Export Plug-In . SVG Version: 6.00 Build 0)  -->
<svg version="1.1" id="圖層_1" xmlns="http://www.w3.org/2000/svg" xmlns:xlink="http://www.w3.org/1999/xlink" x="0px" y="0px"
	 viewBox="0 0 168.5 60.2" style="enable-background:new 0 0 168.5 60.2;" xml:space="preserve">
<style type="text/css">
	.st0{fill:#FFFFFF;}
	.st1{fill:#D60C18;}
</style>
<g>
	<path class="st0" d="M133.4,46.5c-1.6,0-2.9,0.5-4,1.6c-1.1,1.1-1.6,2.5-1.6,4.1c0,1.7,0.5,3.1,1.6,4.2c1.1,1.1,2.4,1.6,4.1,1.6
		c0.9,0,1.7-0.1,2.5-0.3v-1.2c-0.8,0.2-1.7,0.3-2.5,0.3c-1.3,0-2.3-0.4-3.2-1.3c-0.8-0.9-1.2-2-1.2-3.4c0-1.3,0.4-2.4,1.3-3.3
		c0.9-0.9,1.9-1.3,3.1-1.3c1.3,0,2.4,0.4,3.1,1.2c0.8,0.8,1.1,1.9,1.1,3.3c0,0.9-0.2,1.6-0.5,2.3h-1.3v-5.3h-1.3l-0.1,0.4
		c-0.6-0.4-1.1-0.6-1.6-0.6c-0.7,0-1.3,0.3-1.8,0.9c-0.5,0.6-0.7,1.4-0.7,2.4c0,1,0.2,1.8,0.6,2.3c0.4,0.6,0.9,0.9,1.6,0.9
		c0.3,0,0.7-0.1,0.9-0.2c0.3-0.1,0.6-0.4,1-0.7l0.2,0.8h3.2c0.7-1,1-2.1,1-3.3c0-1.7-0.5-3-1.5-4.1C136.3,47,135,46.5,133.4,46.5z
		 M134.4,53.7c-0.4,0.3-0.8,0.5-1.2,0.5c-0.9,0-1.4-0.7-1.4-2c0-0.7,0.1-1.2,0.4-1.5c0.3-0.4,0.7-0.5,1.2-0.5c0.3,0,0.7,0.1,1,0.2
		V53.7z"/>
	<path class="st0" d="M147.6,52.3h5.1V51h-5.5c0-0.5,0.1-0.9,0.1-1.3v-1.5h4.9v-1.3h-10.9v1.3h4.7v1.5c0,0.4,0,0.9-0.1,1.3h-5.1v1.3
		h4.9c-0.5,1.9-1.9,3.8-5.3,5.1c0.3,0.3,0.7,0.8,0.8,1.1c3.3-1.3,4.9-3.2,5.6-5.2c1.1,2.5,2.9,4.3,5.6,5.1c0.2-0.4,0.6-0.9,0.9-1.2
		C150.4,56.6,148.6,54.7,147.6,52.3z"/>
	<path class="st0" d="M153.5,48.1h5.2v10.4h1.4v-7c1.5,0.8,3.2,1.9,4.1,2.7l0.9-1.2c-1.1-0.8-3.3-2.1-4.8-2.8l-0.2,0.3v-2.4h5.7
		v-1.3h-12.3V48.1z"/>
</g>
<g>
	<rect x="0" y="0" class="st1" width="168.5" height="42.9"/>
	<g>
		<path class="st0" d="M85.4,1.7v39.6H125V1.7H85.4z M123.7,39.9h-37V3h37V39.9z"/>
		<path class="st0" d="M91,22.1h9.7c0,0,0-1.5,0-2h-3.4l-0.9,1h-5.7L91,22.1z"/>
		<path class="st0" d="M97,26h-2.5h-3.8v11.9h3.6V36h3.4v0.9h3.6v-9.8v-2H98L97,26z M97.7,35h-3.4V27h3.4V35z"/>
		<path class="st0" d="M100.8,15.2h-3.4l-0.9,1h-5.7l0.3,1.1h9.7C100.8,17.2,100.8,15.6,100.8,15.2z"/>
		<path class="st0" d="M115.3,21.5c2.1-2.5,4.3-6,5.3-8c0.8,0.1,1.2-0.3,1.3-0.7l-5.3-2.1c-0.2,2.3-1,7.4-1.7,10.6L115.3,21.5z"/>
		<path class="st0" d="M102.8,12.4c0,0,0-1.5,0-2h-3.4l-0.9,1h-9.6l0.3,1.1H102.8z"/>
		<path class="st0" d="M104.4,10.8l-0.5,0.1c0.7,2.8,1.3,6.5,1.1,9.7C108,24.2,111.8,17,104.4,10.8z"/>
		<polygon class="st0" points="109.9,8.3 109.9,24.1 101.9,24.1 102.1,25.2 109.9,25.2 109.9,37.9 113.9,37.9 113.9,25.2 
			122.2,25.2 122.2,23.2 119,23.2 117.8,24.1 113.9,24.1 113.9,8.3 122.2,8.3 122.2,6.4 119,6.4 117.8,7.2 102.7,7.2 103,8.3 		"/>
		<path class="st0" d="M100.8,7.8c0,0,0-1.5,0-2h-3.4l-0.9,1h-5.7L91,7.8H100.8z"/>
	</g>
	<g>
		<path class="st0" d="M157,34.8c0.3,0,1.2,0.1,1.5,0.1c0.4,0,0.5-0.2,0.5-0.6v-4.1h-2V34.8z"/>
		<rect x="135.3" y="28" class="st0" width="3.4" height="8"/>
		<rect x="152.2" y="22.3" class="st0" width="1.8" height="6.8"/>
		<rect x="157" y="22.3" class="st0" width="2" height="6.8"/>
		<rect x="147.7" y="22.3" class="st0" width="1.7" height="6.8"/>
		<path class="st0" d="M127.2,1.7v39.6h39.6V1.7H127.2z M137.4,7.6l0.9-1h3.4c0,0.5,0,2,0,2H132l-0.3-1.1H137.4z M129.9,12.1h9.6
			l0.9-1h3.4c0,0.5,0,2,0,2h-13.7L129.9,12.1z M132,18l-0.3-1.1h5.7l0.9-1h3.4c0,0.5,0,2,0,2H132z M141.7,20.8c0,0.5,0,2,0,2H132
			l-0.3-1.1h5.7l0.9-1H141.7z M142.2,28v9.8h-3.6v-0.9h-3.4v1.9h-3.6V26.8h3.8h2.5L139,26h3.2V28z M162.6,34.6c0,2.7-0.5,4.3-4,4.6
			c0-1.3-0.1-2.2-0.3-2.8c-0.2-0.6-0.6-0.9-1.4-1.2v2.5h-2.8V30h-1.8v7.7h-2.8V30h-1.7v8.7h-3.5V20.5h14.2l1-0.8h3.2V34.6z
			 M147.3,16.4h6.7l0.9-1h3.4c0,0.5,0,2,0,2h-10.7L147.3,16.4z M164.7,14.3c-1.6,0.5-2.7,2.1-2.9,3.8c-3.3-2.5-6.2-6.4-7.5-11
			c-2.3,4.9-7.3,9.5-12,12.1l-0.2-0.4c3.7-3.5,7.8-9.9,8.7-14.2l5.5,1.3c-0.1,0.4-0.5,0.7-1.4,0.8c2,3.5,6.4,5.8,9.9,7.1V14.3z"/>
	</g>
	<path class="st0" d="M1.7,41.3h39.6V1.7H1.7V41.3z M3,3h37v37H3V3z"/>
	<path class="st0" d="M34.4,16.3l-1.1,0.9H21.9l0.3-0.4l0.4,0.1l1-1.3c-0.6-0.1-3.2-0.8-3.2-0.8v-1.1H33v0.6h3.5l0.1-9.2H34L32.7,6
		H17.1v9.3c0,0,2,0,2,0c-0.1,0.2-2.5,6.4-3.9,8.5V23c-0.2-4.3-0.8-8.2-2.8-11.6C13.8,9.8,16.6,6,16.6,6l-4.2-2.1
		c-0.5,1.4-1.1,3.1-1.9,4.8C9.4,7.4,8,6.2,6.3,5.1L5.9,5.5C7.5,7.2,8.6,9,9.4,10.8c-1.2,2.3-2.8,4.7-4.4,6.5l0.4,0.4
		c1.8-1.1,3.5-2.6,5-4.1c0.2,0.9,0.5,1.8,0.6,2.7c-1.3,4.1-3.9,8.3-7,11.4L4.3,28c2.8-1.4,5.4-3.4,7.2-5.4v1.1
		c0,4.2-0.2,8.3-1.2,9.7c-0.2,0.4-0.5,0.5-1,0.5c-1.1,0-3.3-0.2-3.3-0.2v0.5c1,0.3,1.7,0.8,2.1,1.2c0.4,0.5,0.6,1.5,0.6,3
		c2.1,0,3.7-0.5,4.5-1.8c1.7-2.6,2.1-7.6,2-12.4v-0.4l0.2,0.4c0.8-0.5,1.4-1,2.1-1.7V29h3v-0.6H23v3.1c-2.9,0.2-5.3,0.4-6.7,0.5
		l1.6,3.9c0,0,8.6-3,10.9-4c0.2,0.8,0.4,1.6,0.4,2.3c2.8,2.6,6.1-3.1-1.4-5.1l-0.3,0.2c0.4,0.5,0.7,1.1,1,1.7l-2.3,0.2v-2.8h2.3V29
		c0,0,3,0,3,0l0-7.8l-2.2,0L28.2,22h-2v-2.2c0.6-0.1,0.8-0.4,0.9-0.7L23,18.7V22h-2.3h-2.4c0.9-0.9,2.4-2.7,3-3.8h12.4
		c-0.1,10.8-0.2,15.9-1.1,16.9c-0.2,0.3-0.5,0.4-1.1,0.4c-0.7,0-2.6-0.1-3.8-0.3v0.6c1.3,0.3,2.3,0.6,2.9,1.2
		c0.5,0.5,0.6,1.1,0.6,2.1c1.8,0,3.3-0.2,4.3-1.3c1.5-1.7,1.7-6.2,1.8-18.9c0,0,0-2.7,0-2.7H34.4z M30.7,7H33v5.6h-2.3V7z M25.6,7
		h2.2v5.6h-2.2V7z M20.3,7h2.4v5.6h-2.4V7z M26.2,23h2.3v4.3h-2.3V23z M20.5,23H23v4.3h-2.5V23z"/>
	<path class="st0" d="M83.1,1.7H43.5v39.6h39.6V1.7z M61.5,12.2V4.5h5v2.4l-0.7,0.5v4.8h7.5l0.9-1.2h4.4c0,0.5,0,2.2,0,2.2H48.9
		l-0.3-1.1H61.5z M53.6,15.9l0.5-0.1c10.3,10.1,6.9,21.5,2.4,16.8C56.6,27.1,55.2,20.9,53.6,15.9z M79.7,37.2H47.4l-0.3-1.1h18.2
		c1.5-6.2,3.1-14.9,3.9-20.9l6.2,1.5c-0.1,0.5-0.5,0.9-1.4,0.9c-1.6,5-4.5,12.7-7.7,18.5h7l1.9-1.8h4.4V37.2z"/>
</g>
</svg>
