<?xml version="1.0" encoding="utf-8"?>
<!-- Generator: Adobe Illustrator 22.0.1, SVG Export Plug-In . SVG Version: 6.00 Build 0)  -->
<svg version="1.1" id="圖層_1" xmlns="http://www.w3.org/2000/svg" xmlns:xlink="http://www.w3.org/1999/xlink" x="0px" y="0px"
	 viewBox="0 0 172.9 60.2" style="enable-background:new 0 0 172.9 60.2;" xml:space="preserve">
<style type="text/css">
	.st0{fill:#D60C18;}
</style>
<g>
	<path class="st0" d="M43.9,41.5h41.3V0.2H43.9V41.5z M45.2,1.5h38.7v38.7H45.2V1.5z"/>
	<path class="st0" d="M131.6,0.2v41.3h41.3V0.2H131.6z M171.6,40.2h-38.7V1.5h38.7V40.2z"/>
	<rect x="25.4" y="22.3" class="st0" width="2.4" height="4.5"/>
	<rect x="24.8" y="5.6" class="st0" width="2.3" height="5.9"/>
	<rect x="30.1" y="5.6" class="st0" width="2.4" height="5.9"/>
	<rect x="19.2" y="5.6" class="st0" width="2.5" height="5.9"/>
	<path class="st0" d="M0,41.5h41.3V0.2H0V41.5z M8.8,12.4c-1.6,1.6-3.3,3.1-5.2,4.3l-0.4-0.4c1.7-1.9,3.3-4.4,4.6-6.8
		c-0.9-1.9-2-3.8-3.6-5.6l0.4-0.4c1.8,1.1,3.2,2.4,4.4,3.7c0.9-1.8,1.5-3.5,2-5l4.4,2.2c0,0-3,4.1-4.4,5.7c2,3.6,2.7,7.7,2.9,12.2
		v0.8c1.4-2.2,4-8.7,4.1-8.9c0,0-2,0-2,0V4.4h16.3l1.3-0.9h2.8l-0.1,9.6h-3.7v-0.6H19.2v1.1c0,0,2.8,0.7,3.3,0.9l-1,1.4l-0.4-0.1
		l-0.3,0.4h12l1.2-0.9h3c0,0,0,2.8,0,2.8c-0.1,13.3-0.3,18-1.9,19.8c-1,1.2-2.6,1.4-4.5,1.4c0-1-0.1-1.7-0.6-2.2
		c-0.6-0.6-1.6-1-3-1.3v-0.6c1.3,0.1,3.2,0.3,3.9,0.3c0.6,0,0.9-0.2,1.2-0.4c0.9-1,1-6.4,1.1-17.7h-13c-0.7,1.1-2.3,3-3.2,4h2.6H22
		v-3.5l4.3,0.4c-0.1,0.3-0.3,0.6-0.9,0.8v2.3h2.1l1.2-0.9l2.3,0l0,8.2c0,0-3.2,0-3.2,0V28h-2.4v3l2.5-0.2c-0.3-0.7-0.7-1.3-1-1.8
		l0.3-0.2c7.8,2,4.4,8,1.5,5.3c0-0.8-0.1-1.6-0.4-2.4c-2.5,1-11.5,4.2-11.5,4.2l-1.7-4c1.5-0.1,4-0.3,7-0.5V28h-2.6v0.6h-3.2v-6.7
		c-0.7,0.7-1.3,1.2-2.2,1.7l-0.2-0.4v0.4c0.1,5.1-0.4,10.3-2.1,13.1c-0.9,1.3-2.5,1.9-4.7,1.9c0-1.6-0.2-2.6-0.6-3.1
		c-0.4-0.4-1.2-0.9-2.2-1.2v-0.5c0,0,2.3,0.2,3.5,0.2c0.5,0,0.8-0.1,1.1-0.5c1-1.6,1.2-5.8,1.2-10.2v-1.2C8,24,5.3,26.1,2.4,27.5
		l-0.3-0.3C5.3,24,8,19.5,9.4,15.3C9.3,14.3,9.1,13.4,8.8,12.4z"/>
	<rect x="19.4" y="22.3" class="st0" width="2.6" height="4.5"/>
	<path class="st0" d="M146.8,7.3c0,0,0-1.6,0-2.1h-3.6l-1,1h-6l0.3,1.1H146.8z"/>
	<path class="st0" d="M146.8,14.9h-3.6l-1,1h-6l0.3,1.1h10.2C146.8,17.1,146.8,15.4,146.8,14.9z"/>
	<path class="st0" d="M164.2,14.4h-3.6l-1,1h-7l0.3,1.1h11.2C164.2,16.6,164.2,14.9,164.2,14.4z"/>
	<path class="st0" d="M136.6,22.2h10.2c0,0,0-1.6,0-2.1h-3.6l-1,1h-6L136.6,22.2z"/>
	<path class="st0" d="M149,12c0,0,0-1.6,0-2.1h-3.6l-1,1h-10l0.3,1.1H149z"/>
	<path class="st0" d="M142.8,26.3h-2.7h-3.9v12.5h3.8v-1.9h3.6v0.9h3.7V27.5v-2h-3.4L142.8,26.3z M143.6,35.7H140v-8.3h3.6V35.7z"/>
	<path class="st0" d="M147.2,17.9l0.3,0.4c4.9-2.8,10.1-7.6,12.5-12.7c1.4,4.9,4.4,8.9,7.9,11.5c0.2-1.7,1.3-3.4,3-3.9v-0.5
		c-3.7-1.4-8.3-3.8-10.4-7.5c1-0.1,1.4-0.3,1.5-0.8L156.2,3C155.3,7.5,151,14.2,147.2,17.9z"/>
	<path class="st0" d="M164.2,19.7h-14.8v19.1h3.7v-9.1h1.8v8.1h2.9v-8.1h1.9v8.1h3v-2.6c0.8,0.2,1.2,0.6,1.4,1.2
		c0.3,0.6,0.3,1.6,0.3,3c3.7-0.3,4.2-1.9,4.2-4.8V18.8h-3.4L164.2,19.7z M154.9,28.5h-1.8v-7.1h1.8V28.5z M159.7,28.5h-1.9v-7.1h1.9
		V28.5z M164.7,34c0,0.4-0.1,0.6-0.5,0.6c-0.3,0-1.2,0-1.6-0.1v-4.9h2.1V34z M164.7,28.5h-2.1v-7.1h2.1V28.5z"/>
	<path class="st0" d="M87.7,41.5h41.3V0.2H87.7V41.5z M104.3,26.7v10.2h-3.7V36H97v1.9h-3.8V25.4h3.9h2.7l1.1-0.8h3.4V26.7z
		 M99.2,20.2l1-1h3.6c0,0.5,0,2.1,0,2.1H93.6l-0.3-1.1H99.2z M93.3,15.1h6l1-1h3.6c0,0.5,0,2.1,0,2.1H93.6L93.3,15.1z M121.7,5.7
		l1.2-0.9h3.4v2h-8.7v16.6h4.1l1.2-0.9h3.4v2h-8.7v13.3h-4.2V24.6h-8.1l-0.3-1.1h8.4V6.9h-7.2l-0.3-1.1H121.7z M126,11.7
		c-0.1,0.4-0.6,0.8-1.4,0.7c-1.1,2.1-3.4,5.7-5.6,8.4l-0.3-0.2c0.7-3.4,1.5-8.7,1.8-11.1L126,11.7z M107.1,9.7l0.5-0.2
		c7.8,6.5,3.8,14,0.6,10.3C108.5,16.5,107.8,12.7,107.1,9.7z M99.2,5.4l1-1h3.6c0,0.5,0,2.1,0,2.1H93.6l-0.3-1.1H99.2z M101.4,10.1
		l1-1h3.6c0,0.5,0,2.1,0,2.1H91.7l-0.3-1.1H101.4z"/>
	<rect x="97" y="26.6" class="st0" width="3.6" height="8.3"/>
	<path class="st0" d="M75.1,36.1h-7.3c3.3-6.1,6.3-14.1,8-19.4c0.9,0,1.3-0.4,1.4-0.9l-6.5-1.6c-0.8,6.3-2.5,15.3-4.1,21.9H47.6
		l0.3,1.1h33.8v-3h-4.6L75.1,36.1z"/>
	<path class="st0" d="M57.5,32.3c4.7,5,8.3-7-2.5-17.5L54.4,15C56.1,20.3,57.6,26.8,57.5,32.3z"/>
	<path class="st0" d="M80.7,12.3c0,0,0-1.8,0-2.3h-4.6l-1,1.2h-7.9V6.1l0.7-0.5V3h-5.2v8.1H49.2l0.3,1.1H80.7z"/>
	<g>
		<path class="st0" d="M138.6,47.2c-1.7,0-3.1,0.6-4.2,1.7c-1.1,1.1-1.7,2.6-1.7,4.3c0,1.8,0.6,3.2,1.7,4.3c1.1,1.1,2.5,1.7,4.2,1.7
			c0.9,0,1.8-0.1,2.6-0.3v-1.2c-0.9,0.2-1.7,0.4-2.6,0.4c-1.3,0-2.4-0.4-3.3-1.3c-0.9-0.9-1.3-2.1-1.3-3.5c0-1.4,0.4-2.6,1.3-3.5
			c0.9-0.9,2-1.4,3.3-1.4c1.4,0,2.5,0.4,3.3,1.3c0.8,0.8,1.2,2,1.2,3.5c0,0.9-0.2,1.7-0.5,2.4h-1.3V50h-1.4l-0.1,0.4
			c-0.6-0.4-1.2-0.6-1.7-0.6c-0.7,0-1.3,0.3-1.8,1c-0.5,0.6-0.7,1.5-0.7,2.5c0,1,0.2,1.8,0.6,2.4c0.4,0.6,1,0.9,1.6,0.9
			c0.4,0,0.7-0.1,1-0.2c0.3-0.1,0.6-0.4,1-0.7l0.2,0.9h3.3c0.7-1,1-2.2,1-3.5c0-1.7-0.5-3.2-1.6-4.2
			C141.7,47.8,140.3,47.2,138.6,47.2z M139.8,54.8c-0.4,0.3-0.8,0.5-1.3,0.5c-1,0-1.5-0.7-1.5-2.1c0-0.7,0.1-1.2,0.4-1.6
			c0.3-0.4,0.7-0.6,1.3-0.6c0.4,0,0.7,0.1,1,0.2V54.8z"/>
		<path class="st0" d="M153.5,53.3h5.3V52h-5.7c0-0.5,0.1-1,0.1-1.4V49h5.1v-1.4h-11.4V49h4.9v1.6c0,0.4,0,0.9-0.1,1.4h-5.4v1.4h5.1
			c-0.6,1.9-2,4-5.5,5.3c0.3,0.3,0.7,0.8,0.9,1.1c3.5-1.4,5.1-3.4,5.8-5.4c1.2,2.6,3,4.5,5.8,5.4c0.2-0.4,0.6-1,0.9-1.3
			C156.5,57.8,154.5,55.9,153.5,53.3z"/>
		<path class="st0" d="M159.8,48.9h5.4v10.9h1.4v-7.3c1.6,0.9,3.4,2,4.3,2.8l1-1.2c-1.1-0.9-3.4-2.2-5.1-3l-0.2,0.3v-2.5h6v-1.4
			h-12.8V48.9z"/>
	</g>
</g>
</svg>
